{
  "source": "C:\\Users\\Peter\\Desktop\\stuff\\MIUN\\quantitative_research\\video_compression\\videos\\BVI-HD\\BVI-HD_CDVL_videos\\ORIG\\Lightreef_1920x1080_30fps.mp4",
  "output": "C:\\Users\\Peter\\Desktop\\stuff\\MIUN\\quantitative_research\\video_compression\\compressed_videos\\BVI-HD\\hevc\\1.5\\Lightreef_1920x1080_30fps_hevc.mp4",
  "codec": "hevc",
  "ok": "Input #0, mov,mp4,m4a,3gp,3g2,mj2, from 'C:\\Users\\Peter\\Desktop\\stuff\\MIUN\\quantitative_research\\video_compression\\videos\\BVI-HD\\BVI-HD_CDVL_videos\\ORIG\\Lightreef_1920x1080_30fps.mp4':\n  Metadata:\n    major_brand     : isom\n    minor_version   : 512\n    compatible_brands: isomiso2avc1mp41\n    encoder         : Lavf54.28.101\n  Duration: 00:00:05.00, start: 0.000000, bitrate: 361719 kb/s\n  Stream #0:0[0x1](und): Video: h264 (High 4:4:4 Predictive) (avc1 / 0x31637661), yuv420p(progressive), 1920x1080, 361715 kb/s, 30 fps, 30 tbr, 30 tbn (default)\n    Metadata:\n      handler_name    : VideoHandler\n      vendor_id       : [0][0][0][0]\n[out#0/mp4 @ 000001be7e24ab00] Codec AVOption b:a (set bitrate (in bits/s)) has not been used for any stream. The most likely reason is either wrong type (e.g. a video option with no video streams) or that it is a private option of some decoder which was not actually used for any stream.\nStream mapping:\n  Stream #0:0 -> #0:0 (h264 (native) -> hevc (libx265))\nPress [q] to stop, [?] for help\n[libx265 @ 000001be7edc0bc0] Unknown option: \"aq-mode.\nx265 [info]: HEVC encoder version 4.1+190-8f11c33ac\nx265 [info]: build info [Windows][GCC 15.1.0][64 bit] 10bit\nx265 [info]: using cpu capabilities: MMX2 SSE2Fast LZCNT SSSE3 SSE4.2 AVX FMA3 BMI2 AVX2\nx265 [info]: Main 10 profile, Level-4 (Main tier)\nx265 [info]: Thread pool created using 12 threads\nx265 [info]: Slices                              : 1\nx265 [info]: frame threads / pool features       : 3 / wpp(17 rows)\nx265 [info]: Coding QT: max CU size, min CU size : 64 / 8\nx265 [info]: Residual QT: max TU size, max depth : 32 / 1 inter / 1 intra\nx265 [info]: ME / range / subpel / merge         : star / 57 / 3 / 3\nx265 [info]: Keyframe min / max / scenecut / bias  : 25 / 250 / 40 / 5.00 \nx265 [info]: Lookahead / bframes / badapt        : 25 / 4 / 2\nx265 [info]: b-pyramid / weightp / weightb       : 1 / 1 / 0\nx265 [info]: References / ref-limit  cu / depth  : 4 / on / on\nx265 [info]: AQ: mode / str / qg-size / cu-tree  : 2 / 1.0 / 32 / 1\nx265 [info]: Rate Control / qCompress            : ABR-1500 kbps / 0.60\nx265 [info]: VBV/HRD buffer / max-rate / init    : 1500 / 1500 / 0.750\nx265 [info]: tools: rect limit-modes rd=4 psy-rd=2.00 rdoq=2 psy-rdoq=1.00\nx265 [info]: tools: rskip mode=1 signhide tmvp strong-intra-smoothing lslices=4\nx265 [info]: tools: deblock sao dhdr10-info\nOutput #0, mp4, to 'C:\\Users\\Peter\\Desktop\\stuff\\MIUN\\quantitative_research\\video_compression\\compressed_videos\\BVI-HD\\hevc\\1.5\\Lightreef_1920x1080_30fps_hevc.mp4':\n  Metadata:\n    major_brand     : isom\n    minor_version   : 512\n    compatible_brands: isomiso2avc1mp41\n    encoder         : Lavf62.3.100\n  Stream #0:0(und): Video: hevc (hev1 / 0x31766568), yuv420p10le(tv, progressive), 1920x1080, q=2-31, 1500 kb/s, 30 fps, 15360 tbn (default)\n    Metadata:\n      encoder         : Lavc62.11.100 libx265\n      handler_name    : VideoHandler\n      vendor_id       : [0][0][0][0]\n    Side data:\n      cpb: bitrate max/min/avg: 1500000/0/1500000 buffer size: 1500000 vbv_delay: N/A\nframe=    0 fps=0.0 q=0.0 size=       0KiB time=N/A bitrate=N/A speed=N/A elapsed=0:00:00.51    \nframe=    0 fps=0.0 q=0.0 size=       0KiB time=N/A bitrate=N/A speed=N/A elapsed=0:00:01.06    \nframe=    0 fps=0.0 q=0.0 size=       0KiB time=N/A bitrate=N/A speed=N/A elapsed=0:00:01.59    \nframe=    0 fps=0.0 q=0.0 size=       0KiB time=N/A bitrate=N/A speed=N/A elapsed=0:00:02.10    \nframe=    0 fps=0.0 q=0.0 size=       0KiB time=N/A bitrate=N/A speed=N/A elapsed=0:00:02.61    \nframe=    0 fps=0.0 q=0.0 size=       0KiB time=N/A bitrate=N/A speed=N/A elapsed=0:00:03.14    \nframe=    0 fps=0.0 q=0.0 size=       0KiB time=N/A bitrate=N/A speed=N/A elapsed=0:00:03.65    \nframe=    0 fps=0.0 q=0.0 size=       0KiB time=N/A bitrate=N/A speed=N/A elapsed=0:00:04.16    \nframe=    0 fps=0.0 q=0.0 size=       0KiB time=N/A bitrate=N/A speed=N/A elapsed=0:00:04.68    \nframe=    0 fps=0.0 q=0.0 size=       0KiB time=N/A bitrate=N/A speed=N/A elapsed=0:00:05.20    \nframe=    1 fps=0.2 q=42.2 size=       0KiB time=-00:00:00.03 bitrate=N/A speed=N/A elapsed=0:00:05.71    \nframe=    3 fps=0.5 q=51.0 size=       0KiB time=00:00:00.03 bitrate=  10.6kbits/s speed=0.00535x elapsed=0:00:06.22    \nframe=    4 fps=0.6 q=51.0 size=       0KiB time=00:00:00.06 bitrate=   5.3kbits/s speed=0.00988x elapsed=0:00:06.74    \nframe=    4 fps=0.6 q=51.0 size=       0KiB time=00:00:00.06 bitrate=   5.3kbits/s speed=0.00918x elapsed=0:00:07.25    \nframe=    5 fps=0.6 q=50.9 size=       0KiB time=00:00:00.10 bitrate=   3.5kbits/s speed=0.0129x elapsed=0:00:07.77    \nframe=    6 fps=0.7 q=50.7 size=       0KiB time=00:00:00.13 bitrate=   2.6kbits/s speed=0.0161x elapsed=0:00:08.29    \nframe=    7 fps=0.8 q=46.1 size=       0KiB time=00:00:00.16 bitrate=   2.1kbits/s speed=0.0189x elapsed=0:00:08.80    \nframe=    8 fps=0.9 q=47.0 size=       0KiB time=00:00:00.20 bitrate=   1.8kbits/s speed=0.0214x elapsed=0:00:09.33    \nframe=    9 fps=0.9 q=47.4 size=       0KiB time=00:00:00.23 bitrate=   1.5kbits/s speed=0.0237x elapsed=0:00:09.85    \nframe=   10 fps=1.0 q=47.1 size=       0KiB time=00:00:00.26 bitrate=   1.3kbits/s speed=0.0257x elapsed=0:00:10.36    \nframe=   10 fps=0.9 q=47.1 size=       0KiB time=00:00:00.26 bitrate=   1.3kbits/s speed=0.0245x elapsed=0:00:10.88    \nframe=   12 fps=1.1 q=43.3 size=       0KiB time=00:00:00.33 bitrate=   1.1kbits/s speed=0.0292x elapsed=0:00:11.40    \nframe=   13 fps=1.1 q=45.3 size=       0KiB time=00:00:00.36 bitrate=   1.0kbits/s speed=0.0308x elapsed=0:00:11.91    \nframe=   13 fps=1.0 q=45.3 size=       0KiB time=00:00:00.36 bitrate=   1.0kbits/s speed=0.0295x elapsed=0:00:12.43    \nframe=   14 fps=1.1 q=46.6 size=       0KiB time=00:00:00.40 bitrate=   0.9kbits/s speed=0.0309x elapsed=0:00:12.94    \nframe=   14 fps=1.0 q=46.6 size=       0KiB time=00:00:00.40 bitrate=   0.9kbits/s speed=0.0297x elapsed=0:00:13.47    \nframe=   15 fps=1.1 q=45.8 size=       0KiB time=00:00:00.43 bitrate=   0.8kbits/s speed=0.031x elapsed=0:00:13.97    \nframe=   16 fps=1.1 q=42.3 size=       0KiB time=00:00:00.46 bitrate=   0.8kbits/s speed=0.0322x elapsed=0:00:14.50    \nframe=   18 fps=1.2 q=45.8 size=       0KiB time=00:00:00.53 bitrate=   0.7kbits/s speed=0.0355x elapsed=0:00:15.02    \nframe=   18 fps=1.2 q=45.8 size=       0KiB time=00:00:00.53 bitrate=   0.7kbits/s speed=0.0343x elapsed=0:00:15.53    \nframe=   19 fps=1.2 q=46.1 size=       0KiB time=00:00:00.56 bitrate=   0.6kbits/s speed=0.0353x elapsed=0:00:16.06    \nframe=   19 fps=1.1 q=46.1 size=       0KiB time=00:00:00.56 bitrate=   0.6kbits/s speed=0.0342x elapsed=0:00:16.57    \nframe=   20 fps=1.2 q=45.7 size=       0KiB time=00:00:00.60 bitrate=   0.6kbits/s speed=0.0351x elapsed=0:00:17.09    \nframe=   21 fps=1.2 q=41.7 size=       0KiB time=00:00:00.63 bitrate=   0.6kbits/s speed=0.036x elapsed=0:00:17.61    \nframe=   22 fps=1.2 q=44.1 size=       0KiB time=00:00:00.66 bitrate=   0.5kbits/s speed=0.0368x elapsed=0:00:18.11    \nframe=   22 fps=1.2 q=44.1 size=       0KiB time=00:00:00.66 bitrate=   0.5kbits/s speed=0.0358x elapsed=0:00:18.63    \nframe=   23 fps=1.2 q=46.0 size=       0KiB time=00:00:00.70 bitrate=   0.5kbits/s speed=0.0365x elapsed=0:00:19.15    \nframe=   24 fps=1.2 q=45.8 size=       0KiB time=00:00:00.73 bitrate=   0.5kbits/s speed=0.0373x elapsed=0:00:19.68    \nframe=   25 fps=1.2 q=40.8 size=       0KiB time=00:00:00.76 bitrate=   0.5kbits/s speed=0.038x elapsed=0:00:20.19    \nframe=   27 fps=1.3 q=46.5 size=       0KiB time=00:00:00.83 bitrate=   0.4kbits/s speed=0.0402x elapsed=0:00:20.70    \nframe=   27 fps=1.3 q=46.5 size=       0KiB time=00:00:00.83 bitrate=   0.4kbits/s speed=0.0392x elapsed=0:00:21.23    \nframe=   27 fps=1.2 q=46.5 size=       0KiB time=00:00:00.83 bitrate=   0.4kbits/s speed=0.0383x elapsed=0:00:21.74    \nframe=   28 fps=1.3 q=47.3 size=       0KiB time=00:00:00.86 bitrate=   0.4kbits/s speed=0.0389x elapsed=0:00:22.26    \nframe=   30 fps=1.3 q=40.7 size=       0KiB time=00:00:00.93 bitrate=   0.4kbits/s speed=0.041x elapsed=0:00:22.77    \nframe=   31 fps=1.3 q=44.7 size=       0KiB time=00:00:00.96 bitrate=   0.4kbits/s speed=0.0415x elapsed=0:00:23.28    \nframe=   31 fps=1.3 q=44.7 size=       0KiB time=00:00:00.96 bitrate=   0.4kbits/s speed=0.0406x elapsed=0:00:23.80    \nframe=   31 fps=1.3 q=44.7 size=       0KiB time=00:00:00.96 bitrate=   0.4kbits/s speed=0.0397x elapsed=0:00:24.32    \nframe=   32 fps=1.3 q=47.1 size=       0KiB time=00:00:01.00 bitrate=   0.4kbits/s speed=0.0403x elapsed=0:00:24.84    \nframe=   33 fps=1.3 q=46.6 size=       0KiB time=00:00:01.03 bitrate=   0.3kbits/s speed=0.0408x elapsed=0:00:25.34    \nframe=   34 fps=1.3 q=40.9 size=       0KiB time=00:00:01.06 bitrate=   0.3kbits/s speed=0.0412x elapsed=0:00:25.87    \nframe=   35 fps=1.3 q=44.2 size=       0KiB time=00:00:01.10 bitrate=   0.3kbits/s speed=0.0417x elapsed=0:00:26.40    \nframe=   36 fps=1.3 q=46.7 size=       0KiB time=00:00:01.13 bitrate=   0.3kbits/s speed=0.0421x elapsed=0:00:26.92    \nframe=   36 fps=1.3 q=46.7 size=       0KiB time=00:00:01.13 bitrate=   0.3kbits/s speed=0.0413x elapsed=0:00:27.44    \nframe=   37 fps=1.3 q=46.0 size=       0KiB time=00:00:01.16 bitrate=   0.3kbits/s speed=0.0417x elapsed=0:00:27.96    \nframe=   37 fps=1.3 q=46.0 size=       0KiB time=00:00:01.16 bitrate=   0.3kbits/s speed=0.041x elapsed=0:00:28.47    \nframe=   38 fps=1.3 q=45.9 size=       0KiB time=00:00:01.20 bitrate=   0.3kbits/s speed=0.0414x elapsed=0:00:28.99    \nframe=   39 fps=1.3 q=40.6 size=       0KiB time=00:00:01.23 bitrate=   0.3kbits/s speed=0.0418x elapsed=0:00:29.50    \nframe=   39 fps=1.3 q=40.6 size=       0KiB time=00:00:01.23 bitrate=   0.3kbits/s speed=0.041x elapsed=0:00:30.05    \nframe=   39 fps=1.3 q=40.6 size=       0KiB time=00:00:01.23 bitrate=   0.3kbits/s speed=0.0403x elapsed=0:00:30.62    \nframe=   39 fps=1.3 q=40.6 size=       0KiB time=00:00:01.23 bitrate=   0.3kbits/s speed=0.0396x elapsed=0:00:31.14    \nframe=   39 fps=1.2 q=40.6 size=       0KiB time=00:00:01.23 bitrate=   0.3kbits/s speed=0.0389x elapsed=0:00:31.68    \nframe=   39 fps=1.2 q=40.6 size=       0KiB time=00:00:01.23 bitrate=   0.3kbits/s speed=0.0383x elapsed=0:00:32.22    \nframe=   39 fps=1.2 q=40.6 size=       0KiB time=00:00:01.23 bitrate=   0.3kbits/s speed=0.0376x elapsed=0:00:32.76    \nframe=   40 fps=1.2 q=43.6 size=       0KiB time=00:00:01.26 bitrate=   0.3kbits/s speed=0.0381x elapsed=0:00:33.28    \nframe=   40 fps=1.2 q=43.6 size=       0KiB time=00:00:01.26 bitrate=   0.3kbits/s speed=0.0375x elapsed=0:00:33.80    \nframe=   41 fps=1.2 q=45.9 size=       0KiB time=00:00:01.30 bitrate=   0.3kbits/s speed=0.0379x elapsed=0:00:34.32    \nframe=   41 fps=1.2 q=45.9 size=       0KiB time=00:00:01.30 bitrate=   0.3kbits/s speed=0.0373x elapsed=0:00:34.87    \nframe=   41 fps=1.2 q=45.9 size=       0KiB time=00:00:01.30 bitrate=   0.3kbits/s speed=0.0367x elapsed=0:00:35.40    \nframe=   42 fps=1.2 q=40.5 size=       0KiB time=00:00:01.33 bitrate=   0.3kbits/s speed=0.0371x elapsed=0:00:35.94    \nframe=   42 fps=1.2 q=40.5 size=       0KiB time=00:00:01.33 bitrate=   0.3kbits/s speed=0.0366x elapsed=0:00:36.46    \nframe=   43 fps=1.2 q=43.6 size=       0KiB time=00:00:01.36 bitrate=   0.3kbits/s speed=0.0369x elapsed=0:00:37.01    \nframe=   43 fps=1.1 q=43.6 size=       0KiB time=00:00:01.36 bitrate=   0.3kbits/s speed=0.0364x elapsed=0:00:37.53    \nframe=   43 fps=1.1 q=43.6 size=       0KiB time=00:00:01.36 bitrate=   0.3kbits/s speed=0.0359x elapsed=0:00:38.04    \nframe=   43 fps=1.1 q=43.6 size=       0KiB time=00:00:01.36 bitrate=   0.3kbits/s speed=0.0354x elapsed=0:00:38.55    \nframe=   43 fps=1.1 q=43.6 size=       0KiB time=00:00:01.36 bitrate=   0.3kbits/s speed=0.035x elapsed=0:00:39.09    \nframe=   43 fps=1.1 q=43.6 size=       0KiB time=00:00:01.36 bitrate=   0.3kbits/s speed=0.0345x elapsed=0:00:39.61    \nframe=   44 fps=1.1 q=45.5 size=       0KiB time=00:00:01.40 bitrate=   0.3kbits/s speed=0.0349x elapsed=0:00:40.14    \nframe=   44 fps=1.1 q=45.5 size=       0KiB time=00:00:01.40 bitrate=   0.3kbits/s speed=0.0344x elapsed=0:00:40.66    \nframe=   44 fps=1.1 q=45.5 size=       0KiB time=00:00:01.40 bitrate=   0.3kbits/s speed=0.034x elapsed=0:00:41.18    \nframe=   45 fps=1.1 q=45.2 size=       0KiB time=00:00:01.43 bitrate=   0.2kbits/s speed=0.0344x elapsed=0:00:41.72    \nframe=   45 fps=1.1 q=45.2 size=       0KiB time=00:00:01.43 bitrate=   0.2kbits/s speed=0.0339x elapsed=0:00:42.25    \nframe=   45 fps=1.1 q=45.2 size=       0KiB time=00:00:01.43 bitrate=   0.2kbits/s speed=0.0335x elapsed=0:00:42.78    \nframe=   45 fps=1.0 q=45.2 size=       0KiB time=00:00:01.43 bitrate=   0.2kbits/s speed=0.0331x elapsed=0:00:43.30    \nframe=   45 fps=1.0 q=45.2 size=       0KiB time=00:00:01.43 bitrate=   0.2kbits/s speed=0.0327x elapsed=0:00:43.86    \nframe=   45 fps=1.0 q=45.2 size=       0KiB time=00:00:01.43 bitrate=   0.2kbits/s speed=0.0323x elapsed=0:00:44.40    \nframe=   46 fps=1.0 q=40.7 size=       0KiB time=00:00:01.46 bitrate=   0.2kbits/s speed=0.0326x elapsed=0:00:44.92    \nframe=   46 fps=1.0 q=40.7 size=       0KiB time=00:00:01.46 bitrate=   0.2kbits/s speed=0.0323x elapsed=0:00:45.44    \nframe=   48 fps=1.0 q=44.6 size=     256KiB time=00:00:01.53 bitrate=1367.9kbits/s speed=0.0334x elapsed=0:00:45.97    \nframe=   48 fps=1.0 q=44.6 size=     256KiB time=00:00:01.53 bitrate=1367.9kbits/s speed=0.033x elapsed=0:00:46.50    \nframe=   48 fps=1.0 q=44.6 size=     256KiB time=00:00:01.53 bitrate=1367.9kbits/s speed=0.0326x elapsed=0:00:47.03    \nframe=   49 fps=1.0 q=45.1 size=     256KiB time=00:00:01.56 bitrate=1338.8kbits/s speed=0.0329x elapsed=0:00:47.56    \nframe=   49 fps=1.0 q=45.1 size=     256KiB time=00:00:01.56 bitrate=1338.8kbits/s speed=0.0326x elapsed=0:00:48.07    \nframe=   50 fps=1.0 q=44.8 size=     256KiB time=00:00:01.60 bitrate=1310.9kbits/s speed=0.0329x elapsed=0:00:48.59    \nframe=   50 fps=1.0 q=44.8 size=     256KiB time=00:00:01.60 bitrate=1310.9kbits/s speed=0.0326x elapsed=0:00:49.12    \nframe=   51 fps=1.0 q=40.6 size=     256KiB time=00:00:01.63 bitrate=1284.2kbits/s speed=0.0329x elapsed=0:00:49.63    \nframe=   51 fps=1.0 q=40.6 size=     256KiB time=00:00:01.63 bitrate=1284.2kbits/s speed=0.0326x elapsed=0:00:50.14    \nframe=   51 fps=1.0 q=40.6 size=     256KiB time=00:00:01.63 bitrate=1284.2kbits/s speed=0.0322x elapsed=0:00:50.66    \nframe=   51 fps=1.0 q=40.6 size=     256KiB time=00:00:01.63 bitrate=1284.2kbits/s speed=0.0319x elapsed=0:00:51.19    \nframe=   52 fps=1.0 q=43.4 size=     256KiB time=00:00:01.66 bitrate=1258.5kbits/s speed=0.0322x elapsed=0:00:51.71    \nframe=   52 fps=1.0 q=43.4 size=     256KiB time=00:00:01.66 bitrate=1258.5kbits/s speed=0.0319x elapsed=0:00:52.24    \nframe=   52 fps=1.0 q=43.4 size=     256KiB time=00:00:01.66 bitrate=1258.5kbits/s speed=0.0316x elapsed=0:00:52.77    \nframe=   53 fps=1.0 q=45.4 size=     256KiB time=00:00:01.70 bitrate=1233.8kbits/s speed=0.0319x elapsed=0:00:53.28    \nframe=   54 fps=1.0 q=40.6 size=     256KiB time=00:00:01.73 bitrate=1210.1kbits/s speed=0.0322x elapsed=0:00:53.82    \nframe=   54 fps=1.0 q=40.6 size=     256KiB time=00:00:01.73 bitrate=1210.1kbits/s speed=0.0319x elapsed=0:00:54.37    \nframe=   54 fps=1.0 q=40.6 size=     256KiB time=00:00:01.73 bitrate=1210.1kbits/s speed=0.0316x elapsed=0:00:54.92    \nframe=   54 fps=1.0 q=40.6 size=     256KiB time=00:00:01.73 bitrate=1210.1kbits/s speed=0.0312x elapsed=0:00:55.49    \nframe=   54 fps=1.0 q=40.6 size=     256KiB time=00:00:01.73 bitrate=1210.1kbits/s speed=0.0309x elapsed=0:00:56.03    \nframe=   54 fps=1.0 q=40.6 size=     256KiB time=00:00:01.73 bitrate=1210.1kbits/s speed=0.0306x elapsed=0:00:56.57    \nframe=   55 fps=1.0 q=44.9 size=     256KiB time=00:00:01.76 bitrate=1187.3kbits/s speed=0.0309x elapsed=0:00:57.09    \nframe=   55 fps=1.0 q=44.9 size=     256KiB time=00:00:01.76 bitrate=1187.3kbits/s speed=0.0307x elapsed=0:00:57.62    \nframe=   56 fps=1.0 q=45.7 size=     256KiB time=00:00:01.80 bitrate=1165.3kbits/s speed=0.031x elapsed=0:00:58.13    \nframe=   56 fps=1.0 q=45.7 size=     256KiB time=00:00:01.80 bitrate=1165.3kbits/s speed=0.0307x elapsed=0:00:58.64    \nframe=   57 fps=1.0 q=40.4 size=     256KiB time=00:00:01.83 bitrate=1144.1kbits/s speed=0.031x elapsed=0:00:59.19    \nframe=   58 fps=1.0 q=43.3 size=     256KiB time=00:00:01.83 bitrate=1144.1kbits/s speed=0.0307x elapsed=0:00:59.72    \nframe=   58 fps=1.0 q=43.3 size=     256KiB time=00:00:01.86 bitrate=1123.7kbits/s speed=0.031x elapsed=0:01:00.24    \nframe=   58 fps=1.0 q=43.3 size=     256KiB time=00:00:01.86 bitrate=1123.7kbits/s speed=0.0307x elapsed=0:01:00.77    \nframe=   58 fps=0.9 q=43.3 size=     256KiB time=00:00:01.86 bitrate=1123.7kbits/s speed=0.0305x elapsed=0:01:01.29    \nframe=   58 fps=0.9 q=43.3 size=     256KiB time=00:00:01.86 bitrate=1123.7kbits/s speed=0.0302x elapsed=0:01:01.88    \nframe=   58 fps=0.9 q=43.3 size=     256KiB time=00:00:01.86 bitrate=1123.7kbits/s speed=0.0299x elapsed=0:01:02.40    \nframe=   58 fps=0.9 q=43.3 size=     256KiB time=00:00:01.86 bitrate=1123.7kbits/s speed=0.0297x elapsed=0:01:02.93    \nframe=   59 fps=0.9 q=45.3 size=     256KiB time=00:00:01.90 bitrate=1103.9kbits/s speed=0.0299x elapsed=0:01:03.47    \nframe=   60 fps=0.9 q=45.3 size=     256KiB time=00:00:01.93 bitrate=1084.9kbits/s speed=0.0302x elapsed=0:01:03.98    \nframe=   60 fps=0.9 q=45.3 size=     256KiB time=00:00:01.93 bitrate=1084.9kbits/s speed=0.03x elapsed=0:01:04.53    \nframe=   60 fps=0.9 q=45.3 size=     256KiB time=00:00:01.93 bitrate=1084.9kbits/s speed=0.0297x elapsed=0:01:05.05    \nframe=   60 fps=0.9 q=45.3 size=     256KiB time=00:00:01.93 bitrate=1084.9kbits/s speed=0.0295x elapsed=0:01:05.59    \nframe=   60 fps=0.9 q=45.3 size=     256KiB time=00:00:01.93 bitrate=1084.9kbits/s speed=0.0292x elapsed=0:01:06.10    \nframe=   60 fps=0.9 q=45.3 size=     256KiB time=00:00:01.93 bitrate=1084.9kbits/s speed=0.029x elapsed=0:01:06.64    \nframe=   61 fps=0.9 q=41.2 size=     256KiB time=00:00:01.96 bitrate=1066.5kbits/s speed=0.0293x elapsed=0:01:07.18    \nframe=   62 fps=0.9 q=43.2 size=     256KiB time=00:00:02.00 bitrate=1048.8kbits/s speed=0.0295x elapsed=0:01:07.70    \nframe=   62 fps=0.9 q=43.2 size=     256KiB time=00:00:02.00 bitrate=1048.8kbits/s speed=0.0293x elapsed=0:01:08.23    \nframe=   63 fps=0.9 q=46.0 size=     256KiB time=00:00:02.03 bitrate=1031.6kbits/s speed=0.0296x elapsed=0:01:08.74    \nframe=   63 fps=0.9 q=46.0 size=     256KiB time=00:00:02.03 bitrate=1031.6kbits/s speed=0.0294x elapsed=0:01:09.26    \nframe=   64 fps=0.9 q=46.4 size=     256KiB time=00:00:02.06 bitrate=1014.9kbits/s speed=0.0296x elapsed=0:01:09.79    \nframe=   64 fps=0.9 q=46.4 size=     256KiB time=00:00:02.06 bitrate=1014.9kbits/s speed=0.0294x elapsed=0:01:10.32    \nframe=   64 fps=0.9 q=46.4 size=     256KiB time=00:00:02.06 bitrate=1014.9kbits/s speed=0.0292x elapsed=0:01:10.84    \nframe=   65 fps=0.9 q=46.7 size=     256KiB time=00:00:02.06 bitrate=1014.9kbits/s speed=0.029x elapsed=0:01:11.38    \nframe=   65 fps=0.9 q=46.7 size=     256KiB time=00:00:02.10 bitrate= 998.8kbits/s speed=0.0292x elapsed=0:01:11.92    \nframe=   66 fps=0.9 q=41.0 size=     256KiB time=00:00:02.13 bitrate= 983.2kbits/s speed=0.0294x elapsed=0:01:12.44    \nframe=   67 fps=0.9 q=41.5 size=     256KiB time=00:00:02.16 bitrate= 968.1kbits/s speed=0.0297x elapsed=0:01:12.97    \nframe=   67 fps=0.9 q=41.5 size=     256KiB time=00:00:02.16 bitrate= 968.1kbits/s speed=0.0295x elapsed=0:01:13.52    \nframe=   67 fps=0.9 q=41.5 size=     256KiB time=00:00:02.16 bitrate= 968.1kbits/s speed=0.0293x elapsed=0:01:14.06    \nframe=   67 fps=0.9 q=41.5 size=     256KiB time=00:00:02.16 bitrate= 968.1kbits/s speed=0.029x elapsed=0:01:14.63    \nframe=   67 fps=0.9 q=41.5 size=     256KiB time=00:00:02.16 bitrate= 968.1kbits/s speed=0.0288x elapsed=0:01:15.23    \nframe=   67 fps=0.9 q=41.5 size=     256KiB time=00:00:02.16 bitrate= 968.1kbits/s speed=0.0286x elapsed=0:01:15.79    \nframe=   67 fps=0.9 q=41.5 size=     256KiB time=00:00:02.16 bitrate= 968.1kbits/s speed=0.0284x elapsed=0:01:16.31    \nframe=   68 fps=0.9 q=45.5 size=     256KiB time=00:00:02.20 bitrate= 953.4kbits/s speed=0.0286x elapsed=0:01:16.84    \nframe=   69 fps=0.9 q=46.4 size=     256KiB time=00:00:02.23 bitrate= 939.2kbits/s speed=0.0289x elapsed=0:01:17.37    \nframe=   69 fps=0.9 q=46.4 size=     256KiB time=00:00:02.23 bitrate= 939.2kbits/s speed=0.0287x elapsed=0:01:17.88    \nframe=   69 fps=0.9 q=46.4 size=     256KiB time=00:00:02.23 bitrate= 939.2kbits/s speed=0.0285x elapsed=0:01:18.40    \nframe=   70 fps=0.9 q=46.2 size=     256KiB time=00:00:02.26 bitrate= 925.4kbits/s speed=0.0287x elapsed=0:01:18.92    \nframe=   71 fps=0.9 q=45.6 size=     256KiB time=00:00:02.30 bitrate= 912.0kbits/s speed=0.0289x elapsed=0:01:19.45    \nframe=   72 fps=0.9 q=40.6 size=     256KiB time=00:00:02.33 bitrate= 898.9kbits/s speed=0.0292x elapsed=0:01:19.96    \nframe=   73 fps=0.9 q=43.7 size=     256KiB time=00:00:02.36 bitrate= 886.3kbits/s speed=0.0294x elapsed=0:01:20.48    \nframe=   73 fps=0.9 q=43.7 size=     256KiB time=00:00:02.36 bitrate= 886.3kbits/s speed=0.0292x elapsed=0:01:21.00    \nframe=   74 fps=0.9 q=45.8 size=     256KiB time=00:00:02.40 bitrate= 874.0kbits/s speed=0.0294x elapsed=0:01:21.52    \nframe=   75 fps=0.9 q=45.9 size=     256KiB time=00:00:02.43 bitrate= 862.0kbits/s speed=0.0297x elapsed=0:01:22.04    \nframe=   76 fps=0.9 q=40.8 size=     256KiB time=00:00:02.46 bitrate= 850.3kbits/s speed=0.0299x elapsed=0:01:22.55    \nframe=   77 fps=0.9 q=43.5 size=     256KiB time=00:00:02.50 bitrate= 839.0kbits/s speed=0.0301x elapsed=0:01:23.08    \nframe=   78 fps=0.9 q=46.2 size=     256KiB time=00:00:02.53 bitrate= 828.0kbits/s speed=0.0303x elapsed=0:01:23.60    \nframe=   78 fps=0.9 q=46.2 size=     256KiB time=00:00:02.53 bitrate= 828.0kbits/s speed=0.0301x elapsed=0:01:24.12    \nframe=   78 fps=0.9 q=46.2 size=     256KiB time=00:00:02.53 bitrate= 828.0kbits/s speed=0.0299x elapsed=0:01:24.63    \nframe=   79 fps=0.9 q=46.5 size=     256KiB time=00:00:02.56 bitrate= 817.2kbits/s speed=0.0301x elapsed=0:01:25.15    \nframe=   80 fps=0.9 q=46.6 size=     256KiB time=00:00:02.60 bitrate= 806.7kbits/s speed=0.0303x elapsed=0:01:25.66    \nframe=   81 fps=0.9 q=40.7 size=     256KiB time=00:00:02.63 bitrate= 796.5kbits/s speed=0.0306x elapsed=0:01:26.18    \nframe=   82 fps=0.9 q=44.3 size=     256KiB time=00:00:02.66 bitrate= 786.6kbits/s speed=0.0308x elapsed=0:01:26.70    \nframe=   82 fps=0.9 q=44.3 size=     256KiB time=00:00:02.66 bitrate= 786.6kbits/s speed=0.0306x elapsed=0:01:27.21    \nframe=   83 fps=0.9 q=46.6 size=     256KiB time=00:00:02.70 bitrate= 776.9kbits/s speed=0.0308x elapsed=0:01:27.73    \nframe=   83 fps=0.9 q=46.6 size=     256KiB time=00:00:02.70 bitrate= 776.9kbits/s speed=0.0306x elapsed=0:01:28.25    \nframe=   84 fps=0.9 q=46.6 size=     256KiB time=00:00:02.73 bitrate= 767.4kbits/s speed=0.0308x elapsed=0:01:28.76    \nframe=   85 fps=1.0 q=41.2 size=     256KiB time=00:00:02.76 bitrate= 758.1kbits/s speed=0.031x elapsed=0:01:29.28    \nframe=   87 fps=1.0 q=46.7 size=     512KiB time=00:00:02.83 bitrate=1480.5kbits/s speed=0.0315x elapsed=0:01:29.80    \nframe=   88 fps=1.0 q=46.8 size=     512KiB time=00:00:02.86 bitrate=1463.3kbits/s speed=0.0317x elapsed=0:01:30.31    \nframe=   88 fps=1.0 q=46.8 size=     512KiB time=00:00:02.86 bitrate=1463.3kbits/s speed=0.0316x elapsed=0:01:30.83    \nframe=   89 fps=1.0 q=47.0 size=     512KiB time=00:00:02.90 bitrate=1446.4kbits/s speed=0.0317x elapsed=0:01:31.35    \nframe=   90 fps=1.0 q=40.9 size=     512KiB time=00:00:02.93 bitrate=1430.0kbits/s speed=0.0319x elapsed=0:01:31.86    \nframe=   90 fps=1.0 q=40.9 size=     512KiB time=00:00:02.93 bitrate=1430.0kbits/s speed=0.0318x elapsed=0:01:32.38    \nframe=   91 fps=1.0 q=44.4 size=     512KiB time=00:00:02.96 bitrate=1413.9kbits/s speed=0.0319x elapsed=0:01:32.90    \nframe=   92 fps=1.0 q=46.7 size=     512KiB time=00:00:03.00 bitrate=1398.2kbits/s speed=0.0321x elapsed=0:01:33.41    \nframe=   93 fps=1.0 q=46.9 size=     512KiB time=00:00:03.03 bitrate=1382.9kbits/s speed=0.0323x elapsed=0:01:33.92    \nframe=   93 fps=1.0 q=46.9 size=     512KiB time=00:00:03.03 bitrate=1382.9kbits/s speed=0.0321x elapsed=0:01:34.45    \nframe=   94 fps=1.0 q=41.2 size=     512KiB time=00:00:03.06 bitrate=1367.8kbits/s speed=0.0323x elapsed=0:01:34.98    \nframe=   95 fps=1.0 q=44.1 size=     512KiB time=00:00:03.10 bitrate=1353.1kbits/s speed=0.0325x elapsed=0:01:35.48    \nframe=   96 fps=1.0 q=46.8 size=     512KiB time=00:00:03.13 bitrate=1338.7kbits/s speed=0.0326x elapsed=0:01:36.01    \nframe=   96 fps=1.0 q=46.8 size=     512KiB time=00:00:03.13 bitrate=1338.7kbits/s speed=0.0325x elapsed=0:01:36.52    \nframe=   97 fps=1.0 q=47.1 size=     512KiB time=00:00:03.16 bitrate=1324.6kbits/s speed=0.0326x elapsed=0:01:37.03    \nframe=   98 fps=1.0 q=46.9 size=     512KiB time=00:00:03.20 bitrate=1310.8kbits/s speed=0.0328x elapsed=0:01:37.55    \nframe=   99 fps=1.0 q=41.1 size=     512KiB time=00:00:03.23 bitrate=1297.3kbits/s speed=0.033x elapsed=0:01:38.07    \nframe=  100 fps=1.0 q=44.4 size=     512KiB time=00:00:03.26 bitrate=1284.1kbits/s speed=0.0331x elapsed=0:01:38.58    \nframe=  101 fps=1.0 q=46.9 size=     512KiB time=00:00:03.30 bitrate=1271.1kbits/s speed=0.0333x elapsed=0:01:39.12    \nframe=  101 fps=1.0 q=46.9 size=     512KiB time=00:00:03.30 bitrate=1271.1kbits/s speed=0.0331x elapsed=0:01:39.68    \nframe=  101 fps=1.0 q=46.9 size=     512KiB time=00:00:03.30 bitrate=1271.1kbits/s speed=0.0329x elapsed=0:01:40.20    \nframe=  101 fps=1.0 q=46.9 size=     512KiB time=00:00:03.30 bitrate=1271.1kbits/s speed=0.0328x elapsed=0:01:40.73    \nframe=  101 fps=1.0 q=46.9 size=     512KiB time=00:00:03.30 bitrate=1271.1kbits/s speed=0.0326x elapsed=0:01:41.27    \nframe=  102 fps=1.0 q=47.0 size=     512KiB time=00:00:03.33 bitrate=1258.4kbits/s speed=0.0327x elapsed=0:01:41.79    \nframe=  102 fps=1.0 q=47.0 size=     512KiB time=00:00:03.33 bitrate=1258.4kbits/s speed=0.0326x elapsed=0:01:42.34    \nframe=  102 fps=1.0 q=47.0 size=     512KiB time=00:00:03.33 bitrate=1258.4kbits/s speed=0.0324x elapsed=0:01:42.85    \nframe=  102 fps=1.0 q=47.0 size=     512KiB time=00:00:03.33 bitrate=1258.4kbits/s speed=0.0322x elapsed=0:01:43.38    \nframe=  102 fps=1.0 q=47.0 size=     512KiB time=00:00:03.33 bitrate=1258.4kbits/s speed=0.0321x elapsed=0:01:43.91    \nframe=  103 fps=1.0 q=41.1 size=     512KiB time=00:00:03.36 bitrate=1245.9kbits/s speed=0.0322x elapsed=0:01:44.44    \nframe=  103 fps=1.0 q=41.1 size=     512KiB time=00:00:03.36 bitrate=1245.9kbits/s speed=0.0321x elapsed=0:01:44.95    \nframe=  103 fps=1.0 q=41.1 size=     512KiB time=00:00:03.36 bitrate=1245.9kbits/s speed=0.0319x elapsed=0:01:45.48    \nframe=  103 fps=1.0 q=41.1 size=     512KiB time=00:00:03.36 bitrate=1245.9kbits/s speed=0.0318x elapsed=0:01:45.99    \nframe=  104 fps=1.0 q=44.5 size=     512KiB time=00:00:03.40 bitrate=1233.7kbits/s speed=0.0319x elapsed=0:01:46.51    \nframe=  104 fps=1.0 q=44.5 size=     512KiB time=00:00:03.40 bitrate=1233.7kbits/s speed=0.0318x elapsed=0:01:47.04    \nframe=  104 fps=1.0 q=44.5 size=     512KiB time=00:00:03.40 bitrate=1233.7kbits/s speed=0.0316x elapsed=0:01:47.57    \nframe=  105 fps=1.0 q=46.8 size=     512KiB time=00:00:03.43 bitrate=1221.7kbits/s speed=0.0318x elapsed=0:01:48.09    \nframe=  105 fps=1.0 q=46.8 size=     512KiB time=00:00:03.43 bitrate=1221.7kbits/s speed=0.0316x elapsed=0:01:48.77    \nframe=  105 fps=1.0 q=46.8 size=     512KiB time=00:00:03.43 bitrate=1221.7kbits/s speed=0.0314x elapsed=0:01:49.38    \nframe=  105 fps=1.0 q=46.8 size=     512KiB time=00:00:03.43 bitrate=1221.7kbits/s speed=0.0312x elapsed=0:01:50.00    \nframe=  106 fps=1.0 q=46.9 size=     512KiB time=00:00:03.46 bitrate=1210.0kbits/s speed=0.0313x elapsed=0:01:50.70    \nframe=  106 fps=1.0 q=46.9 size=     512KiB time=00:00:03.46 bitrate=1210.0kbits/s speed=0.0311x elapsed=0:01:51.33    \nframe=  106 fps=0.9 q=46.9 size=     512KiB time=00:00:03.46 bitrate=1210.0kbits/s speed=0.031x elapsed=0:01:51.92    \nframe=  106 fps=0.9 q=46.9 size=     512KiB time=00:00:03.46 bitrate=1210.0kbits/s speed=0.0308x elapsed=0:01:52.50    \nframe=  107 fps=0.9 q=47.1 size=     512KiB time=00:00:03.50 bitrate=1198.5kbits/s speed=0.031x elapsed=0:01:53.04    \nframe=  107 fps=0.9 q=47.1 size=     512KiB time=00:00:03.50 bitrate=1198.5kbits/s speed=0.0308x elapsed=0:01:53.61    \nframe=  107 fps=0.9 q=47.1 size=     512KiB time=00:00:03.50 bitrate=1198.5kbits/s speed=0.0307x elapsed=0:01:54.16    \nframe=  107 fps=0.9 q=47.1 size=     512KiB time=00:00:03.50 bitrate=1198.5kbits/s speed=0.0305x elapsed=0:01:54.71    \nframe=  107 fps=0.9 q=47.1 size=     512KiB time=00:00:03.50 bitrate=1198.5kbits/s speed=0.0304x elapsed=0:01:55.23    \nframe=  107 fps=0.9 q=47.1 size=     512KiB time=00:00:03.50 bitrate=1198.5kbits/s speed=0.0302x elapsed=0:01:55.80    \nframe=  107 fps=0.9 q=47.1 size=     512KiB time=00:00:03.50 bitrate=1198.5kbits/s speed=0.0301x elapsed=0:01:56.36    \nframe=  107 fps=0.9 q=47.1 size=     512KiB time=00:00:03.50 bitrate=1198.5kbits/s speed=0.0299x elapsed=0:01:56.91    \nframe=  107 fps=0.9 q=47.1 size=     512KiB time=00:00:03.50 bitrate=1198.5kbits/s speed=0.0298x elapsed=0:01:57.48    \nframe=  107 fps=0.9 q=47.1 size=     512KiB time=00:00:03.50 bitrate=1198.5kbits/s speed=0.0296x elapsed=0:01:58.10    \nframe=  107 fps=0.9 q=47.1 size=     512KiB time=00:00:03.50 bitrate=1198.5kbits/s speed=0.0295x elapsed=0:01:58.64    \nframe=  107 fps=0.9 q=47.1 size=     512KiB time=00:00:03.50 bitrate=1198.5kbits/s speed=0.0294x elapsed=0:01:59.16    \nframe=  107 fps=0.9 q=47.1 size=     512KiB time=00:00:03.50 bitrate=1198.5kbits/s speed=0.0292x elapsed=0:01:59.69    \nframe=  107 fps=0.9 q=47.1 size=     512KiB time=00:00:03.50 bitrate=1198.5kbits/s speed=0.0291x elapsed=0:02:00.25    \nframe=  108 fps=0.9 q=41.2 size=     512KiB time=00:00:03.53 bitrate=1187.2kbits/s speed=0.0293x elapsed=0:02:00.77    \nframe=  108 fps=0.9 q=41.2 size=     512KiB time=00:00:03.53 bitrate=1187.2kbits/s speed=0.0291x elapsed=0:02:01.33    \nframe=  108 fps=0.9 q=41.2 size=     512KiB time=00:00:03.53 bitrate=1187.2kbits/s speed=0.029x elapsed=0:02:01.96    \nframe=  108 fps=0.9 q=41.2 size=     512KiB time=00:00:03.53 bitrate=1187.2kbits/s speed=0.0288x elapsed=0:02:02.49    \nframe=  108 fps=0.9 q=41.2 size=     512KiB time=00:00:03.53 bitrate=1187.2kbits/s speed=0.0287x elapsed=0:02:03.03    \nframe=  108 fps=0.9 q=41.2 size=     512KiB time=00:00:03.53 bitrate=1187.2kbits/s speed=0.0286x elapsed=0:02:03.59    \nframe=  108 fps=0.9 q=41.2 size=     512KiB time=00:00:03.53 bitrate=1187.2kbits/s speed=0.0285x elapsed=0:02:04.15    \nframe=  108 fps=0.9 q=41.2 size=     512KiB time=00:00:03.53 bitrate=1187.2kbits/s speed=0.0283x elapsed=0:02:04.67    \nframe=  109 fps=0.9 q=45.2 size=     512KiB time=00:00:03.56 bitrate=1176.1kbits/s speed=0.0285x elapsed=0:02:05.21    \nframe=  109 fps=0.9 q=45.2 size=     512KiB time=00:00:03.56 bitrate=1176.1kbits/s speed=0.0284x elapsed=0:02:05.74    \nframe=  109 fps=0.9 q=45.2 size=     512KiB time=00:00:03.56 bitrate=1176.1kbits/s speed=0.0282x elapsed=0:02:06.34    \nframe=  109 fps=0.9 q=45.2 size=     512KiB time=00:00:03.56 bitrate=1176.1kbits/s speed=0.0281x elapsed=0:02:06.87    \nframe=  109 fps=0.9 q=45.2 size=     512KiB time=00:00:03.56 bitrate=1176.1kbits/s speed=0.028x elapsed=0:02:07.39    \nframe=  109 fps=0.9 q=45.2 size=     512KiB time=00:00:03.56 bitrate=1176.1kbits/s speed=0.0279x elapsed=0:02:07.95    \nframe=  110 fps=0.9 q=46.8 size=     512KiB time=00:00:03.60 bitrate=1165.2kbits/s speed=0.028x elapsed=0:02:08.48    \nframe=  111 fps=0.9 q=41.4 size=     512KiB time=00:00:03.63 bitrate=1154.5kbits/s speed=0.0282x elapsed=0:02:09.01    \nframe=  111 fps=0.9 q=41.4 size=     512KiB time=00:00:03.63 bitrate=1154.5kbits/s speed=0.028x elapsed=0:02:09.56    \nframe=  111 fps=0.9 q=41.4 size=     512KiB time=00:00:03.63 bitrate=1154.5kbits/s speed=0.0279x elapsed=0:02:10.12    \nframe=  111 fps=0.8 q=41.4 size=     512KiB time=00:00:03.63 bitrate=1154.5kbits/s speed=0.0278x elapsed=0:02:10.69    \nframe=  111 fps=0.8 q=41.4 size=     512KiB time=00:00:03.63 bitrate=1154.5kbits/s speed=0.0277x elapsed=0:02:11.23    \nframe=  111 fps=0.8 q=41.4 size=     512KiB time=00:00:03.63 bitrate=1154.5kbits/s speed=0.0276x elapsed=0:02:11.79    \nframe=  111 fps=0.8 q=41.4 size=     512KiB time=00:00:03.63 bitrate=1154.5kbits/s speed=0.0275x elapsed=0:02:12.34    \nframe=  111 fps=0.8 q=41.4 size=     512KiB time=00:00:03.63 bitrate=1154.5kbits/s speed=0.0273x elapsed=0:02:12.91    \nframe=  112 fps=0.8 q=44.9 size=     512KiB time=00:00:03.66 bitrate=1144.0kbits/s speed=0.0275x elapsed=0:02:13.49    \nframe=  112 fps=0.8 q=44.9 size=     512KiB time=00:00:03.66 bitrate=1144.0kbits/s speed=0.0274x elapsed=0:02:14.02    \nframe=  112 fps=0.8 q=44.9 size=     512KiB time=00:00:03.66 bitrate=1144.0kbits/s speed=0.0272x elapsed=0:02:14.60    \nframe=  112 fps=0.8 q=44.9 size=     512KiB time=00:00:03.66 bitrate=1144.0kbits/s speed=0.0271x elapsed=0:02:15.16    \nframe=  113 fps=0.8 q=46.9 size=     512KiB time=00:00:03.70 bitrate=1133.7kbits/s speed=0.0273x elapsed=0:02:15.76    \nframe=  113 fps=0.8 q=46.9 size=     512KiB time=00:00:03.70 bitrate=1133.7kbits/s speed=0.0271x elapsed=0:02:16.32    \nframe=  113 fps=0.8 q=46.9 size=     512KiB time=00:00:03.70 bitrate=1133.7kbits/s speed=0.027x elapsed=0:02:16.88    \nframe=  113 fps=0.8 q=46.9 size=     512KiB time=00:00:03.70 bitrate=1133.7kbits/s speed=0.0269x elapsed=0:02:17.49    \nframe=  113 fps=0.8 q=46.9 size=     512KiB time=00:00:03.70 bitrate=1133.7kbits/s speed=0.0268x elapsed=0:02:18.04    \nframe=  113 fps=0.8 q=46.9 size=     512KiB time=00:00:03.70 bitrate=1133.7kbits/s speed=0.0267x elapsed=0:02:18.56    \nframe=  114 fps=0.8 q=41.4 size=     512KiB time=00:00:03.73 bitrate=1123.6kbits/s speed=0.0268x elapsed=0:02:19.12    \nframe=  114 fps=0.8 q=41.4 size=     512KiB time=00:00:03.73 bitrate=1123.6kbits/s speed=0.0267x elapsed=0:02:19.66    \nframe=  114 fps=0.8 q=41.4 size=     512KiB time=00:00:03.73 bitrate=1123.6kbits/s speed=0.0266x elapsed=0:02:20.19    \nframe=  114 fps=0.8 q=41.4 size=     512KiB time=00:00:03.73 bitrate=1123.6kbits/s speed=0.0265x elapsed=0:02:20.73    \nframe=  115 fps=0.8 q=46.0 size=     512KiB time=00:00:03.76 bitrate=1113.6kbits/s speed=0.0267x elapsed=0:02:21.24    \nframe=  115 fps=0.8 q=46.0 size=     512KiB time=00:00:03.76 bitrate=1113.6kbits/s speed=0.0266x elapsed=0:02:21.75    \nframe=  115 fps=0.8 q=46.0 size=     512KiB time=00:00:03.76 bitrate=1113.6kbits/s speed=0.0265x elapsed=0:02:22.36    \nframe=  115 fps=0.8 q=46.0 size=     512KiB time=00:00:03.76 bitrate=1113.6kbits/s speed=0.0264x elapsed=0:02:22.92    \nframe=  116 fps=0.8 q=47.0 size=     512KiB time=00:00:03.80 bitrate=1103.9kbits/s speed=0.0265x elapsed=0:02:23.46    \nframe=  116 fps=0.8 q=47.0 size=     512KiB time=00:00:03.80 bitrate=1103.9kbits/s speed=0.0264x elapsed=0:02:24.00    \nframe=  116 fps=0.8 q=47.0 size=     512KiB time=00:00:03.80 bitrate=1103.9kbits/s speed=0.0263x elapsed=0:02:24.54    \nframe=  116 fps=0.8 q=47.0 size=     512KiB time=00:00:03.80 bitrate=1103.9kbits/s speed=0.0262x elapsed=0:02:25.08    \nframe=  117 fps=0.8 q=41.3 size=     512KiB time=00:00:03.83 bitrate=1094.3kbits/s speed=0.0263x elapsed=0:02:25.59    \nframe=  118 fps=0.8 q=44.5 size=     512KiB time=00:00:03.86 bitrate=1084.8kbits/s speed=0.0265x elapsed=0:02:26.13    \nframe=  118 fps=0.8 q=44.5 size=     512KiB time=00:00:03.86 bitrate=1084.8kbits/s speed=0.0264x elapsed=0:02:26.65    \nframe=  118 fps=0.8 q=44.5 size=     512KiB time=00:00:03.86 bitrate=1084.8kbits/s speed=0.0263x elapsed=0:02:27.16    \nframe=  119 fps=0.8 q=47.1 size=     512KiB time=00:00:03.90 bitrate=1075.6kbits/s speed=0.0264x elapsed=0:02:27.71    \nframe=  119 fps=0.8 q=47.1 size=     512KiB time=00:00:03.90 bitrate=1075.6kbits/s speed=0.0263x elapsed=0:02:28.22    \nframe=  119 fps=0.8 q=47.1 size=     512KiB time=00:00:03.90 bitrate=1075.6kbits/s speed=0.0262x elapsed=0:02:28.74    \nframe=  119 fps=0.8 q=47.1 size=     512KiB time=00:00:03.90 bitrate=1075.6kbits/s speed=0.0261x elapsed=0:02:29.26    \nframe=  120 fps=0.8 q=46.6 size=     512KiB time=00:00:03.93 bitrate=1066.4kbits/s speed=0.0263x elapsed=0:02:29.79    \nframe=  120 fps=0.8 q=46.6 size=     512KiB time=00:00:03.93 bitrate=1066.4kbits/s speed=0.0262x elapsed=0:02:30.31    \nframe=  120 fps=0.8 q=46.6 size=     512KiB time=00:00:03.93 bitrate=1066.4kbits/s speed=0.0261x elapsed=0:02:30.84    \nframe=  120 fps=0.8 q=46.6 size=     512KiB time=00:00:03.93 bitrate=1066.4kbits/s speed=0.026x elapsed=0:02:31.36    \nframe=  120 fps=0.8 q=46.6 size=     512KiB time=00:00:03.93 bitrate=1066.4kbits/s speed=0.0259x elapsed=0:02:31.88    \nframe=  121 fps=0.8 q=41.0 size=     512KiB time=00:00:03.96 bitrate=1057.5kbits/s speed=0.026x elapsed=0:02:32.40    \nframe=  121 fps=0.8 q=41.0 size=     512KiB time=00:00:03.96 bitrate=1057.5kbits/s speed=0.0259x elapsed=0:02:32.93    \nframe=  121 fps=0.8 q=41.0 size=     512KiB time=00:00:03.96 bitrate=1057.5kbits/s speed=0.0258x elapsed=0:02:33.47    \nframe=  122 fps=0.8 q=44.1 size=     512KiB time=00:00:04.00 bitrate=1048.7kbits/s speed=0.026x elapsed=0:02:34.01    \nframe=  122 fps=0.8 q=44.1 size=     512KiB time=00:00:04.00 bitrate=1048.7kbits/s speed=0.0259x elapsed=0:02:34.53    \nframe=  122 fps=0.8 q=44.1 size=     512KiB time=00:00:04.00 bitrate=1048.7kbits/s speed=0.0258x elapsed=0:02:35.05    \nframe=  122 fps=0.8 q=44.1 size=     512KiB time=00:00:04.00 bitrate=1048.7kbits/s speed=0.0257x elapsed=0:02:35.58    \nframe=  122 fps=0.8 q=44.1 size=     512KiB time=00:00:04.00 bitrate=1048.7kbits/s speed=0.0256x elapsed=0:02:36.11    \nframe=  123 fps=0.8 q=46.5 size=     512KiB time=00:00:04.03 bitrate=1040.0kbits/s speed=0.0257x elapsed=0:02:36.65    \nframe=  123 fps=0.8 q=46.5 size=     512KiB time=00:00:04.03 bitrate=1040.0kbits/s speed=0.0257x elapsed=0:02:37.20    \nframe=  124 fps=0.8 q=45.9 size=     512KiB time=00:00:04.06 bitrate=1031.5kbits/s speed=0.0258x elapsed=0:02:37.73    \nframe=  124 fps=0.8 q=45.9 size=     512KiB time=00:00:04.06 bitrate=1031.5kbits/s speed=0.0257x elapsed=0:02:38.24    \nframe=  124 fps=0.8 q=45.9 size=     512KiB time=00:00:04.06 bitrate=1031.5kbits/s speed=0.0256x elapsed=0:02:38.76    \nframe=  124 fps=0.8 q=45.9 size=     512KiB time=00:00:04.06 bitrate=1031.5kbits/s speed=0.0255x elapsed=0:02:39.28    \nframe=  124 fps=0.8 q=45.9 size=     512KiB time=00:00:04.06 bitrate=1031.5kbits/s speed=0.0254x elapsed=0:02:39.80    \nframe=  125 fps=0.8 q=46.7 size=     512KiB time=00:00:04.10 bitrate=1023.1kbits/s speed=0.0256x elapsed=0:02:40.32    \nframe=  126 fps=0.8 q=41.1 size=     512KiB time=00:00:04.13 bitrate=1014.8kbits/s speed=0.0257x elapsed=0:02:40.83    \nframe=  126 fps=0.8 q=41.1 size=     512KiB time=00:00:04.13 bitrate=1014.8kbits/s speed=0.0256x elapsed=0:02:41.36    \nframe=  127 fps=0.8 q=44.7 size=     512KiB time=00:00:04.16 bitrate=1006.7kbits/s speed=0.0257x elapsed=0:02:41.89    \nframe=  127 fps=0.8 q=44.7 size=     512KiB time=00:00:04.16 bitrate=1006.7kbits/s speed=0.0257x elapsed=0:02:42.43    \nframe=  128 fps=0.8 q=46.5 size=     512KiB time=00:00:04.20 bitrate= 998.7kbits/s speed=0.0258x elapsed=0:02:42.96    \nframe=  128 fps=0.8 q=46.5 size=     512KiB time=00:00:04.20 bitrate= 998.7kbits/s speed=0.0257x elapsed=0:02:43.47    \nframe=  128 fps=0.8 q=46.5 size=     512KiB time=00:00:04.20 bitrate= 998.7kbits/s speed=0.0256x elapsed=0:02:43.99    \nframe=  129 fps=0.8 q=40.9 size=     512KiB time=00:00:04.23 bitrate= 990.9kbits/s speed=0.0257x elapsed=0:02:44.54    \nframe=  129 fps=0.8 q=40.9 size=     512KiB time=00:00:04.23 bitrate= 990.9kbits/s speed=0.0256x elapsed=0:02:45.06    \nframe=  130 fps=0.8 q=43.9 size=     768KiB time=00:00:04.26 bitrate=1474.6kbits/s speed=0.0258x elapsed=0:02:45.58    \nframe=  130 fps=0.8 q=43.9 size=     768KiB time=00:00:04.26 bitrate=1474.6kbits/s speed=0.0257x elapsed=0:02:46.13    \nframe=  130 fps=0.8 q=43.9 size=     768KiB time=00:00:04.26 bitrate=1474.6kbits/s speed=0.0256x elapsed=0:02:46.66    \nframe=  130 fps=0.8 q=43.9 size=     768KiB time=00:00:04.26 bitrate=1474.6kbits/s speed=0.0255x elapsed=0:02:47.18    \nframe=  131 fps=0.8 q=45.9 size=     768KiB time=00:00:04.30 bitrate=1463.2kbits/s speed=0.0256x elapsed=0:02:47.70    \nframe=  131 fps=0.8 q=45.9 size=     768KiB time=00:00:04.30 bitrate=1463.2kbits/s speed=0.0256x elapsed=0:02:48.22    \nframe=  132 fps=0.8 q=45.9 size=     768KiB time=00:00:04.33 bitrate=1452.0kbits/s speed=0.0257x elapsed=0:02:48.73    \nframe=  132 fps=0.8 q=45.9 size=     768KiB time=00:00:04.33 bitrate=1452.0kbits/s speed=0.0256x elapsed=0:02:49.29    \nframe=  132 fps=0.8 q=45.9 size=     768KiB time=00:00:04.33 bitrate=1452.0kbits/s speed=0.0255x elapsed=0:02:49.92    \nframe=  132 fps=0.8 q=45.9 size=     768KiB time=00:00:04.33 bitrate=1452.0kbits/s speed=0.0254x elapsed=0:02:50.47    \nframe=  132 fps=0.8 q=45.9 size=     768KiB time=00:00:04.33 bitrate=1452.0kbits/s speed=0.0253x elapsed=0:02:51.00    \nframe=  132 fps=0.8 q=45.9 size=     768KiB time=00:00:04.33 bitrate=1452.0kbits/s speed=0.0253x elapsed=0:02:51.52    \nframe=  132 fps=0.8 q=45.9 size=     768KiB time=00:00:04.33 bitrate=1452.0kbits/s speed=0.0252x elapsed=0:02:52.03    \nframe=  133 fps=0.8 q=41.0 size=     768KiB time=00:00:04.36 bitrate=1440.9kbits/s speed=0.0253x elapsed=0:02:52.56    \nframe=  134 fps=0.8 q=41.4 size=     768KiB time=00:00:04.40 bitrate=1430.0kbits/s speed=0.0254x elapsed=0:02:53.09    \nframe=  134 fps=0.8 q=41.4 size=     768KiB time=00:00:04.40 bitrate=1430.0kbits/s speed=0.0253x elapsed=0:02:53.63    \nframe=  134 fps=0.8 q=41.4 size=     768KiB time=00:00:04.40 bitrate=1430.0kbits/s speed=0.0253x elapsed=0:02:54.16    \nframe=  134 fps=0.8 q=41.4 size=     768KiB time=00:00:04.40 bitrate=1430.0kbits/s speed=0.0252x elapsed=0:02:54.70    \nframe=  135 fps=0.8 q=46.6 size=     768KiB time=00:00:04.43 bitrate=1419.2kbits/s speed=0.0253x elapsed=0:02:55.28    \nframe=  135 fps=0.8 q=46.6 size=     768KiB time=00:00:04.43 bitrate=1419.2kbits/s speed=0.0252x elapsed=0:02:55.80    \nframe=  135 fps=0.8 q=46.6 size=     768KiB time=00:00:04.43 bitrate=1419.2kbits/s speed=0.0251x elapsed=0:02:56.31    \nframe=  136 fps=0.8 q=46.6 size=     768KiB time=00:00:04.46 bitrate=1408.6kbits/s speed=0.0253x elapsed=0:02:56.84    \nframe=  136 fps=0.8 q=46.6 size=     768KiB time=00:00:04.46 bitrate=1408.6kbits/s speed=0.0252x elapsed=0:02:57.35    \nframe=  136 fps=0.8 q=46.6 size=     768KiB time=00:00:04.46 bitrate=1408.6kbits/s speed=0.0251x elapsed=0:02:57.86    \nframe=  136 fps=0.8 q=46.6 size=     768KiB time=00:00:04.46 bitrate=1408.6kbits/s speed=0.025x elapsed=0:02:58.41    \nframe=  136 fps=0.8 q=46.6 size=     768KiB time=00:00:04.46 bitrate=1408.6kbits/s speed=0.025x elapsed=0:02:58.95    \nframe=  137 fps=0.8 q=47.1 size=     768KiB time=00:00:04.50 bitrate=1398.2kbits/s speed=0.0251x elapsed=0:02:59.50    \nframe=  137 fps=0.8 q=47.1 size=     768KiB time=00:00:04.50 bitrate=1398.2kbits/s speed=0.025x elapsed=0:03:00.03    \nframe=  138 fps=0.8 q=41.2 size=     768KiB time=00:00:04.53 bitrate=1387.9kbits/s speed=0.0251x elapsed=0:03:00.56    \nframe=  138 fps=0.8 q=41.2 size=     768KiB time=00:00:04.53 bitrate=1387.9kbits/s speed=0.025x elapsed=0:03:01.08    \nframe=  138 fps=0.8 q=41.2 size=     768KiB time=00:00:04.53 bitrate=1387.9kbits/s speed=0.025x elapsed=0:03:01.58    \nframe=  138 fps=0.8 q=41.2 size=     768KiB time=00:00:04.53 bitrate=1387.9kbits/s speed=0.0249x elapsed=0:03:02.13    \nframe=  139 fps=0.8 q=44.5 size=     768KiB time=00:00:04.56 bitrate=1377.8kbits/s speed=0.025x elapsed=0:03:02.68    \nframe=  139 fps=0.8 q=44.5 size=     768KiB time=00:00:04.56 bitrate=1377.8kbits/s speed=0.0249x elapsed=0:03:03.19    \nframe=  139 fps=0.8 q=44.5 size=     768KiB time=00:00:04.56 bitrate=1377.8kbits/s speed=0.0249x elapsed=0:03:03.72    \nframe=  139 fps=0.8 q=44.5 size=     768KiB time=00:00:04.56 bitrate=1377.8kbits/s speed=0.0248x elapsed=0:03:04.24    \nframe=  139 fps=0.8 q=44.5 size=     768KiB time=00:00:04.56 bitrate=1377.8kbits/s speed=0.0247x elapsed=0:03:04.77    \nframe=  140 fps=0.8 q=46.9 size=     768KiB time=00:00:04.60 bitrate=1367.8kbits/s speed=0.0248x elapsed=0:03:05.30    \nframe=  140 fps=0.8 q=46.9 size=     768KiB time=00:00:04.60 bitrate=1367.8kbits/s speed=0.0248x elapsed=0:03:05.84    \nframe=  141 fps=0.8 q=47.1 size=     768KiB time=00:00:04.63 bitrate=1357.9kbits/s speed=0.0249x elapsed=0:03:06.35    \nframe=  142 fps=0.8 q=42.2 size=     768KiB time=00:00:04.66 bitrate=1348.2kbits/s speed=0.025x elapsed=0:03:06.86    \nframe=  142 fps=0.8 q=42.2 size=     768KiB time=00:00:04.66 bitrate=1348.2kbits/s speed=0.0249x elapsed=0:03:07.39    \nframe=  142 fps=0.8 q=42.2 size=     768KiB time=00:00:04.66 bitrate=1348.2kbits/s speed=0.0248x elapsed=0:03:07.94    \nframe=  143 fps=0.8 q=45.6 size=     768KiB time=00:00:04.70 bitrate=1338.7kbits/s speed=0.0249x elapsed=0:03:08.48    \nframe=  144 fps=0.8 q=46.7 size=     768KiB time=00:00:04.73 bitrate=1329.3kbits/s speed=0.025x elapsed=0:03:09.04    \nframe=  144 fps=0.8 q=46.7 size=     768KiB time=00:00:04.73 bitrate=1329.3kbits/s speed=0.025x elapsed=0:03:09.64    \nframe=  144 fps=0.8 q=46.7 size=     768KiB time=00:00:04.73 bitrate=1329.3kbits/s speed=0.0249x elapsed=0:03:10.24    \nframe=  144 fps=0.8 q=46.7 size=     768KiB time=00:00:04.73 bitrate=1329.3kbits/s speed=0.0248x elapsed=0:03:10.76    \nframe=  144 fps=0.8 q=46.7 size=     768KiB time=00:00:04.73 bitrate=1329.3kbits/s speed=0.0247x elapsed=0:03:11.30    \nframe=  145 fps=0.8 q=46.7 size=     768KiB time=00:00:04.76 bitrate=1320.0kbits/s speed=0.0248x elapsed=0:03:11.82    \nframe=  145 fps=0.8 q=46.7 size=     768KiB time=00:00:04.76 bitrate=1320.0kbits/s speed=0.0248x elapsed=0:03:12.34    \nframe=  145 fps=0.8 q=46.7 size=     768KiB time=00:00:04.76 bitrate=1320.0kbits/s speed=0.0247x elapsed=0:03:12.86    \nframe=  145 fps=0.7 q=46.7 size=     768KiB time=00:00:04.76 bitrate=1320.0kbits/s speed=0.0246x elapsed=0:03:13.38    \nframe=  146 fps=0.8 q=46.2 size=     768KiB time=00:00:04.80 bitrate=1310.8kbits/s speed=0.0248x elapsed=0:03:13.89    \nframe=  147 fps=0.8 q=44.1 size=     768KiB time=00:00:04.83 bitrate=1301.8kbits/s speed=0.0249x elapsed=0:03:14.41    \n[mp4 @ 000001be7e259740] Starting second pass: moving the moov atom to the beginning of the file\n[out#0/mp4 @ 000001be7e24ab00] video:899KiB audio:0KiB subtitle:0KiB other streams:0KiB global headers:2KiB muxing overhead: 0.564984%\nframe=  150 fps=0.8 q=43.9 Lsize=     904KiB time=00:00:04.93 bitrate=1500.9kbits/s speed=0.0253x elapsed=0:03:14.83    \nx265 [info]: frame I:      1, Avg QP:42.24  kb/s: 9572.88 \nx265 [info]: frame P:     36, Avg QP:41.57  kb/s: 4429.43 \nx265 [info]: frame B:    113, Avg QP:45.88  kb/s: 457.65  \nx265 [info]: Weighted P-Frames: Y:63.9% UV:58.3%\n\nencoded 150 frames in 194.54s (0.77 fps), 1471.65 kb/s, Avg QP:44.82\n",
  "seconds": 195.35238647460938,
  "probe_out": {}
}